<?xml version="1.0" encoding="UTF-8"?>
<svg width="112px" height="20px" viewBox="0 0 112 20" version="1.1" xmlns="http://www.w3.org/2000/svg" xmlns:xlink="http://www.w3.org/1999/xlink">
    <title>logo / Marsh_White</title>
    <g id="Symbols" stroke="none" stroke-width="1" fill="none" fill-rule="evenodd">
        <g id="dsp-/-headerRegister" transform="translate(-720.000000, -40.000000)" fill="#FFFFFF" fill-rule="nonzero">
            <g id="logos" transform="translate(720.000000, 30.000000)">
                <g id="logo-/-Marsh_White" transform="translate(0.000000, 10.000000)">
                    <path d="M99.6524813,18.2883946 L99.6524813,1.4163403 L102.694427,1.4163403 L102.694427,7.32152821 C103.069646,6.61110611 103.61047,6.05996192 104.316772,5.66759437 C105.022693,5.27560278 105.833802,5.07935635 106.750227,5.07935635 C108.252121,5.07935635 109.409067,5.54929512 110.220304,6.48904734 C111.031413,7.4290502 111.437031,8.77946625 111.437031,10.5405461 L111.437031,18.2883946 L108.395086,18.2883946 L108.395086,11.0955754 C108.395086,8.86092255 107.523687,7.7433455 105.781399,7.7433455 C104.81982,7.7433455 104.065058,8.05789118 103.516856,8.68685723 C102.968273,9.31607391 102.694427,10.2003107 102.694427,11.3398182 L102.694427,18.2883946 L99.6524813,18.2883946 L99.6524813,18.2883946 Z" id="Path"></path>
                    <path d="M91.607888,18.6879052 C91.1421075,18.6879052 90.6351166,18.632515 90.0870424,18.5214842 C89.5384594,18.4104533 89.0127712,18.2588197 88.5097232,18.0663328 C88.0062937,17.8743472 87.5668422,17.6595538 87.1916232,17.4227047 L87.1916232,14.803079 C88.5284206,15.7354375 89.9552706,16.2016168 91.4726819,16.2016168 C92.3588348,16.2016168 93.0049748,16.0943454 93.4104658,15.8798027 C93.8160839,15.66526 94.0189566,15.3284079 94.0189566,14.869497 C94.0189566,14.4699864 93.8347813,14.1446634 93.4668122,13.8927763 C93.0985888,13.6413903 92.3888524,13.35266 91.3374758,13.0268357 C89.865218,12.5684261 88.8251616,12.0355782 88.216798,11.4285427 C87.6084343,10.821883 87.3041889,10.0004301 87.3041889,8.96430907 C87.3041889,7.7655266 87.7470746,6.81850599 88.6336091,6.12274598 C89.5197621,5.4272366 90.7291122,5.07935659 92.2614051,5.07935659 C92.8472556,5.07935659 93.5153999,5.17923424 94.2667284,5.37898955 C95.0176753,5.57887017 95.6711924,5.83414091 96.2270254,6.14492708 L96.2270254,8.76455376 C95.746109,8.40928005 95.1343112,8.11729143 94.3907415,7.88758535 C93.6471718,7.65838055 92.9598213,7.54346486 92.3289445,7.54346486 C90.9168489,7.54346486 90.2109283,7.9652819 90.2109283,8.80891597 C90.2109283,9.06080315 90.2746519,9.27171167 90.4024808,9.44164154 C90.5299281,9.61194734 90.7665069,9.77849365 91.1122172,9.94115512 C91.4575459,10.1041925 91.9533439,10.2890351 92.5993566,10.4961841 C93.7108954,10.8513325 94.5857282,11.2252785 95.2243638,11.6172701 C95.862745,12.0095123 96.3210289,12.4573953 96.5990726,12.9604177 C96.8768619,13.4636908 97.0160109,14.0779948 97.0160109,14.803079 C97.0160109,15.9873247 96.5235121,16.9307101 95.5398022,17.6334879 C94.5558379,18.3362656 93.245115,18.6879052 91.607888,18.6879052 Z" id="Path"></path>
                    <path d="M76.9483812,18.2883946 L76.9483812,5.47886721 L79.8551206,5.47886721 L79.8776338,8.14298142 C80.2229625,7.26989785 80.7486508,6.57438847 81.454953,6.05607734 C82.1607464,5.53826748 82.9568468,5.27911191 83.8433813,5.27911191 C84.0835215,5.27911191 84.3689424,5.30129302 84.6996439,5.34565524 C85.0298367,5.39014278 85.2928716,5.44941773 85.4882399,5.52335475 L85.4882399,8.38709894 C85.2477181,8.31328723 84.9322797,8.24661858 84.5417975,8.18734364 C84.1510609,8.12831934 83.7905963,8.09849389 83.4602763,8.09849389 C82.3337287,8.09849389 81.4735231,8.45752711 80.8802954,9.17521759 C80.2866862,9.89328403 79.9903267,10.9329139 79.9903267,12.2942325 L79.9903267,18.2883946 L76.9483812,18.2883946 L76.9483812,18.2883946 Z" id="Path"></path>
                    <path d="M66.7179818,18.6879052 C65.3660484,18.6879052 64.2805842,18.3217289 63.4620979,17.5891257 C62.6431028,16.8565224 62.2340504,15.8835622 62.2340504,14.6697417 C62.2340504,13.7967834 62.4516774,13.0381143 62.8874403,12.3942355 C63.3229488,11.7503567 63.9388169,11.2475849 64.7351716,10.8846669 C65.5311448,10.5221248 66.4624513,10.3407911 67.5292221,10.3407911 C68.7758398,10.3407911 69.9176504,10.5554591 70.9541454,10.9845445 L70.9541454,10.9401823 C70.9541454,9.85994971 70.6646544,9.03862206 70.0865626,8.47594871 C69.5082165,7.91365131 68.6181205,7.63231463 67.4165292,7.63231463 C66.710223,7.63231463 65.9857322,7.7433455 65.2421625,7.96528191 C64.4985928,8.18734365 63.8036108,8.51304255 63.1578524,8.94212797 L63.1578524,6.30032018 C63.7735933,5.96008451 64.4721367,5.67147945 65.2533555,5.43450499 C66.0343199,5.19790649 66.860569,5.07935661 67.7319676,5.07935661 C69.6546155,5.07935661 71.1343777,5.56771698 72.1708727,6.54456304 C73.2073677,7.52128377 73.7255516,8.91994687 73.7255516,10.7403017 L73.7255516,18.2883946 L71.0893514,18.2883946 L71.044198,16.4236785 C70.6837333,17.1194375 70.1126371,17.6705817 69.3317999,18.0776114 C68.5505811,18.4843903 67.6791825,18.6879052 66.7179818,18.6879052 Z M65.0731232,14.4922928 C65.0731232,15.1286526 65.283373,15.6208978 65.704,15.9685271 C66.1243725,16.3164071 66.710223,16.4900965 67.4615555,16.4900965 C68.5279408,16.4900965 69.3543131,16.1905888 69.9401636,15.5910723 C70.5260141,14.9915557 70.8562069,14.122357 70.9316322,12.9824735 C70.0753696,12.5977503 69.0986553,12.4052634 68.0023797,12.4052634 C67.0408013,12.4052634 66.3123636,12.5867224 65.8166929,12.9491392 C65.3210221,13.3120573 65.0731232,13.8261076 65.0731232,14.4922928 Z" id="Shape"></path>
                    <polygon id="Path" points="41.0880872 18.2883945 41.0880872 1.4163403 44.4228307 1.4163403 50.3263621 10.4740028 56.2975601 1.4163403 59.5421239 1.4163403 59.5421239 18.2883953 56.432639 18.2883953 56.432639 6.07825919 50.303849 15.4246521 44.1975721 6.10056562 44.1975721 18.2883953 41.0880872 18.2883953"></polygon>
                    <path d="M31.6411077,4.61684193 L24.8076094,0.697907332 C24.3263477,0.421909791 23.5388269,0.421909791 23.0575672,0.697907332 L4.20559419,11.5092996 L14.6378171,3.55252377 L9.66018398,0.697907797 C9.17892328,0.421909791 8.3914035,0.421909791 7.91014181,0.697907797 L1.07664369,4.61684243 C0.59538194,4.89284086 0.201621377,5.57104288 0.201963534,6.12337394 L0.201963534,13.9578996 C0.201621403,14.5114001 0.595381992,15.1896026 1.07664369,15.4656016 L7.91014205,19.3845366 C8.39140375,19.6605335 9.17892351,19.6605335 9.66018421,19.3845366 L28.5121562,8.57314335 L18.0799343,16.5299192 L23.0575674,19.3845366 C23.5388271,19.6605335 24.3263479,19.6605335 24.8076096,19.3845366 L31.641108,15.4656016 C32.1223697,15.1896026 32.516129,14.5114001 32.516129,13.9584851 L32.516129,6.12395938 C32.516129,5.57104288 32.1223694,4.89284037 31.6411077,4.61684193 Z" id="Path"></path>
                </g>
            </g>
        </g>
    </g>
</svg>